HIERARCHY
ROOT hip
{
	OFFSET 0.000000 0.000000 0.000000 
	CHANNELS 6 Xposition Yposition Zposition Xrotation Zrotation Yrotation
	JOINT abdomen
	{
		OFFSET 0.000000 3.402643 0.000000 
		CHANNELS 3 Xrotation Zrotation Yrotation
		JOINT chest
		{
			OFFSET 0.000000 8.438565 -0.680529 
			CHANNELS 3 Xrotation Zrotation Yrotation
			JOINT neck
			{
				OFFSET 0.000000 10.207942 -0.272212 
				CHANNELS 3 Xrotation Zrotation Yrotation
				JOINT head
				{
					OFFSET 0.000000 3.130431 0.000000 
					CHANNELS 3 Xrotation Zrotation Yrotation
					End Site
					{
						OFFSET 0.000000 3.130435 0.000000 
					}
				}
			}
			JOINT lCollar
			{
				OFFSET 3.470700 6.669187 -0.816635 
				CHANNELS 3 Yrotation Zrotation Xrotation
				JOINT lShldr
				{
					OFFSET 3.198488 0.000000 0.000000 
					CHANNELS 3 Zrotation Yrotation Xrotation
					JOINT lForeArm
					{
						OFFSET 10.139888 0.000000 0.000000 
						CHANNELS 3 Yrotation Zrotation Xrotation
						JOINT lHand
						{
							OFFSET 8.370511 0.000000 0.000000 
							CHANNELS 3 Zrotation Yrotation Xrotation
							End Site
							{
								OFFSET 4.083176 0.000000 0.000000 
							}
						}
					}
				}
			}
			JOINT rCollar
			{
				OFFSET -3.470700 6.669187 -0.816635 
				CHANNELS 3 Yrotation Zrotation Xrotation
				JOINT rShldr
				{
					OFFSET -3.198488 0.000000 0.000000 
					CHANNELS 3 Zrotation Yrotation Xrotation
					JOINT rForeArm
					{
						OFFSET -10.139888 0.000000 0.000000 
						CHANNELS 3 Yrotation Zrotation Xrotation
						JOINT rHand
						{
							OFFSET -8.370511 0.000000 0.000000 
							CHANNELS 3 Zrotation Yrotation Xrotation
							End Site
							{
								OFFSET -4.083176 0.000000 0.000000 
							}
						}
					}
				}
			}
		}
	}
	JOINT lThigh
	{
		OFFSET 5.308129 -1.633274 1.361059 
		CHANNELS 3 Xrotation Zrotation Yrotation
		JOINT lShin
		{
			OFFSET -2.041588 -20.007561 0.000000 
			CHANNELS 3 Xrotation Zrotation Yrotation
			JOINT lFoot
			{
				OFFSET 0.000000 -19.190928 -1.224953 
				CHANNELS 3 Xrotation Yrotation Zrotation
				End Site
				{
					OFFSET 0.000000 -2.449906 4.627600 
				}
			}
		}
	}
	JOINT rThigh
	{
		OFFSET -5.308129 -1.633274 1.361059 
		CHANNELS 3 Xrotation Zrotation Yrotation
		JOINT rShin
		{
			OFFSET 2.041588 -20.007561 0.000000 
			CHANNELS 3 Xrotation Zrotation Yrotation
			JOINT rFoot
			{
				OFFSET 0.000000 -19.190928 -1.224953 
				CHANNELS 3 Xrotation Yrotation Zrotation
				End Site
				{
					OFFSET 0.000000 -2.449906 4.627600 
				}
			}
		}
	}
}
MOTION
Frames: 16
Frame Time: 0.033333
2.548364 45.525478 -0.456236 -9.734617 0.077709 -5.917964 0.000000 0.000000 0.000000 16.811705 -6.197124 -5.010326 -21.391636 2.802389 -0.899273 21.585501 -0.302669 1.191390 -3.521967 9.154817 6.304141 -88.084206 -20.108557 -21.424286 -23.792494 14.237061 -4.870751 -12.231009 -10.234826 -4.669893 3.089181 -14.089146 8.026228 105.616768 31.179676 4.073728 22.424219 -18.821951 44.098778 -1.943891 -0.272676 -8.267029 -13.562631 24.163401 15.727945 57.589104 -2.302619 -31.648252 -15.314657 -3.783835 19.758675 -19.139118 -22.985275 -12.476835 58.577934 -10.874441 25.894585 -20.177269 1.968285 -8.847458 
2.602911 45.501453 -0.410083 -9.785365 0.194312 -5.800814 0.000000 0.000000 0.000000 16.428740 -6.203601 -5.344619 -21.005035 2.568202 -0.635003 21.333998 -0.175738 1.269525 -3.521967 9.154817 6.304141 -88.055779 -19.774387 -21.160200 -23.796469 14.213659 -4.862088 -12.246841 -9.742899 -4.751753 3.089181 -14.089146 8.026228 105.743378 31.527111 4.123708 22.446457 -18.847380 44.384434 -1.877176 -0.460235 -8.260846 -13.386526 23.947067 15.726205 57.511162 -2.351347 -31.639530 -15.667316 -3.930251 20.131989 -19.021828 -23.112135 -12.441455 58.606159 -11.038929 25.813820 -20.399122 1.972606 -8.892803 
2.709068 45.536240 -0.379399 -10.276200 0.427647 -5.586073 0.000000 0.000000 0.000000 17.081680 -6.415852 -5.504235 -21.412931 2.636473 -0.781771 21.470179 -0.214798 1.181632 -3.521967 9.154817 6.304141 -88.158020 -20.145866 -21.104599 -23.771610 14.300443 -4.346328 -12.554373 -9.463497 -4.733216 3.089181 -14.089146 8.026228 105.920250 32.078205 3.757922 22.786463 -19.284554 44.538803 -0.149756 -1.432242 -8.157989 -12.850761 23.492208 15.730458 57.306908 -2.378420 -31.582741 -15.567074 -3.926566 20.240057 -18.376902 -23.696932 -12.791497 58.455082 -10.994711 26.035175 -20.278946 1.961346 -8.920372 
2.750850 45.489498 -0.333339 -10.203135 0.699981 -5.420232 0.000000 0.000000 0.000000 16.652424 -6.617098 -5.762054 -21.719975 2.714545 -0.850506 21.589787 -0.566284 1.191445 -3.521967 9.154817 6.304141 -88.111275 -19.811314 -20.945471 -23.772451 14.188670 -4.335575 -12.305031 -9.659586 -4.752512 3.089181 -14.089146 8.026228 106.088135 32.254978 3.740379 22.896667 -19.410048 44.470318 0.488948 -1.903117 -8.137084 -13.113728 23.207010 15.537120 57.596622 -2.372339 -31.769945 -15.486979 -3.840783 19.954185 -18.483700 -23.822683 -12.517879 58.625523 -11.273761 25.676651 -20.661240 2.008821 -8.941899 
2.764912 45.473515 -0.275752 -10.096868 0.632128 -5.224829 0.000000 0.000000 0.000000 16.283178 -6.488290 -5.976579 -21.848782 2.685216 -0.899281 21.584904 -0.351495 1.123026 -3.521967 9.154817 6.304141 -88.164833 -19.455801 -20.982727 -23.795498 14.090294 -4.868706 -12.335732 -9.447792 -4.777917 3.089181 -14.089146 8.026228 106.044388 32.372696 3.942970 22.797832 -19.289309 44.170769 0.057664 -1.777398 -8.161974 -13.260266 23.315065 15.540192 57.758675 -2.339714 -31.918959 -15.558825 -3.884755 20.031998 -18.405870 -23.764570 -12.564806 58.658470 -11.227796 25.469635 -20.798290 2.019526 -8.948335 
2.867157 45.471256 -0.214476 -10.594686 1.089473 -5.069112 0.000000 0.000000 0.000000 16.770908 -6.893592 -6.188254 -22.101789 2.460736 -0.733004 21.572830 0.029291 1.103521 -3.521967 9.154817 6.304141 -88.270302 -19.458511 -20.831924 -23.780003 14.141845 -4.315852 -12.428301 -9.629292 -4.732434 3.089181 -14.089146 8.026228 105.902954 32.710846 3.747461 22.757658 -19.220968 43.934311 -0.548063 -1.401018 -8.187977 -12.732183 22.667318 15.536602 57.730236 -2.396302 -31.879549 -15.616982 -3.917846 20.070877 -17.859474 -24.556181 -12.878527 58.664810 -11.322765 25.781713 -20.918707 2.050872 -9.054460 
2.885976 45.446255 -0.152921 -10.851807 0.787863 -5.117642 0.000000 0.000000 0.000000 17.098351 -6.529089 -5.809433 -22.666990 2.431452 -0.713492 21.758194 0.019527 1.123050 -3.521967 9.154817 6.304141 -88.522400 -19.519335 -20.746449 -23.767408 14.131389 -4.426684 -12.765533 -9.449822 -4.695371 3.089181 -14.089146 8.026228 105.299194 33.525608 3.097249 22.947643 -19.132347 44.335247 -3.828431 -3.656474 -8.561600 -12.390833 22.990158 15.670383 57.914955 -2.367411 -31.934078 -15.950953 -3.999338 20.324352 -17.497692 -24.271580 -12.852601 58.674644 -11.342360 25.693495 -20.958691 2.050061 -9.044065 
2.924012 45.464779 -0.118775 -10.653298 1.225859 -4.961889 0.000000 0.000000 0.000000 16.850950 -6.926940 -5.853964 -22.675455 2.392403 -0.693570 21.634996 0.214804 1.103544 -3.521967 9.154817 6.304141 -88.628815 -19.357166 -20.491096 -23.770231 14.214246 -4.153948 -12.643575 -9.789681 -4.662188 3.089181 -14.089146 8.026228 105.152794 33.734447 2.781406 22.905836 -19.129065 44.515747 -4.520823 -3.690169 -8.621382 -12.547183 22.464821 15.561452 57.750610 -2.416951 -31.843798 -15.907956 -4.017215 20.302862 -17.664417 -24.752165 -12.921278 58.684052 -11.400003 25.748505 -21.036909 2.061071 -9.049949 
2.930851 45.439884 -0.038613 -10.596597 1.255101 -4.932808 0.000000 0.000000 0.000000 16.274935 -7.012265 -6.022302 -22.799314 2.167814 -0.683843 21.647781 0.419861 0.976608 -3.521967 9.154817 6.304141 -88.644608 -18.666327 -20.517908 -23.761478 14.226488 -4.009319 -12.961066 -9.608314 -4.628262 3.089181 -14.089146 8.026228 105.071754 32.365410 1.839436 24.507111 -18.179352 44.744030 -2.093600 -2.393364 -8.389420 -12.557351 22.475842 15.510695 57.811417 -2.440768 -31.800329 -16.162096 -4.054887 20.411985 -17.624464 -24.700806 -12.774697 58.745636 -11.490834 25.570728 -21.240204 2.076198 -9.088439 
2.926672 45.438923 0.045383 -10.672411 1.235697 -4.903307 0.000000 0.000000 0.000000 16.046339 -7.089191 -6.082854 -22.880291 2.216611 -0.742388 21.549103 0.371043 0.947309 -3.521967 9.154817 6.304141 -88.648407 -18.216581 -20.537104 -23.789066 14.130052 -4.741296 -12.706339 -9.649587 -4.675615 3.089181 -14.089146 8.026228 104.577248 32.333836 1.093275 25.514099 -17.434513 44.405823 -1.714893 -2.295948 -8.348000 -12.362366 22.466955 15.567759 57.828808 -2.387623 -31.843410 -16.172516 -4.081622 20.430361 -17.389622 -24.650982 -12.757313 58.718159 -11.560639 25.459831 -21.435488 2.103509 -9.108280 
2.885757 45.457924 0.002930 -9.600148 0.564251 -5.000238 0.000000 0.000000 0.000000 14.823257 -6.391618 -5.935569 -23.169361 2.079930 -0.683852 21.695206 0.351515 0.937542 -3.521967 9.154817 6.304141 -88.799171 -17.618652 -20.719421 -23.792727 14.078713 -4.886038 -13.155648 -9.554903 -4.602828 3.089181 -14.089146 8.026228 103.219994 32.130199 -0.721751 28.125425 -15.702277 45.038902 -2.981282 -3.094841 -8.474530 -13.466536 23.328938 15.460871 57.925911 -2.368315 -31.877981 -16.234661 -4.118951 20.500689 -18.288780 -23.940464 -12.781275 58.523861 -11.121966 25.471514 -21.224443 2.051677 -9.024205 
2.852512 45.437435 0.141661 -9.588114 0.554645 -4.853666 0.000000 0.000000 0.000000 14.393263 -6.254179 -6.061739 -23.392685 1.972516 -0.683861 21.909630 0.351522 0.869184 -3.521967 9.154817 6.304141 -89.016518 -16.763268 -20.863577 -23.784264 14.189466 -4.789050 -13.295951 -9.226394 -4.635498 3.089181 -14.089146 8.026228 99.452843 29.687458 -4.156659 35.977203 -9.737355 42.196449 -3.791630 -3.323017 -8.549184 -13.377720 23.355131 15.383657 57.981590 -2.292036 -32.013832 -16.361502 -4.096695 20.494911 -18.044750 -23.745213 -12.640608 58.582504 -11.268506 25.138296 -21.510262 2.069848 -9.005958 
2.856013 45.471348 0.201166 -9.650588 0.262779 -4.716837 0.000000 0.000000 0.000000 13.794262 -6.079819 -6.020799 -22.667353 2.138453 -0.820834 21.696037 0.449171 0.839894 -3.521967 9.154817 6.304141 -89.427612 -15.834184 -20.138647 -23.860708 13.856313 -6.889310 -11.802998 -10.097148 -4.779229 3.089181 -14.089146 8.026228 96.288078 29.062475 -7.924204 41.570492 -5.825957 41.315510 -5.437538 -3.432697 -8.670417 -13.241009 23.608707 15.440857 57.911919 -2.224359 -32.060085 -16.301197 -4.106416 20.509081 -17.635647 -23.640022 -12.986584 58.339260 -11.083597 25.161873 -21.363974 2.082311 -9.007620 
2.830760 45.497807 0.277350 -9.544366 0.165497 -4.531260 0.000000 0.000000 0.000000 13.269873 -6.061899 -5.882788 -22.356073 2.616474 -1.339170 21.468222 0.283183 0.683634 -3.521967 9.154817 6.304141 -89.742531 -14.883343 -19.384321 -23.886269 14.216681 -7.302054 -12.407996 -9.956297 -4.678059 3.089181 -14.089146 8.026228 91.803818 26.934278 -13.571989 51.599792 0.597664 41.492588 -4.158389 -5.419399 -8.643188 -13.269899 23.763172 15.428873 57.791809 -2.224483 -32.195095 -16.222080 -4.072046 20.370893 -17.428755 -23.431040 -13.034721 58.211853 -11.053942 24.909134 -21.403685 2.060416 -8.987693 
2.814257 45.556793 0.357046 -9.282338 0.068177 -4.189450 0.000000 0.000000 0.000000 12.574898 -5.967815 -5.587351 -22.153511 2.694029 -1.769296 21.535036 0.283197 0.371137 -3.521967 9.154817 6.304141 -90.420395 -13.766270 -18.045084 -23.946802 14.330413 -8.741286 -12.834829 -10.316240 -4.534026 3.089181 -14.089146 8.026228 86.895607 25.633484 -18.558752 60.151646 5.901226 39.530048 -5.416869 -6.008333 -8.723620 -13.465565 23.853092 15.346085 57.563900 -2.173438 -32.271221 -16.135477 -4.033538 20.268152 -17.214355 -23.382891 -13.325543 57.894119 -10.874383 24.767643 -21.473541 2.077598 -8.978362 
2.829484 45.712238 0.446435 -9.430123 0.214243 -4.287116 0.000000 0.000000 0.000000 12.247743 -6.267678 -4.746111 -22.083534 2.849408 -2.229148 21.748327 0.234375 0.068399 -3.521967 9.154817 6.304141 -91.457085 -12.549899 -16.319893 -24.003641 14.833961 -10.838864 -14.392995 -8.700929 -4.524423 3.089181 -14.089146 8.026228 81.651855 24.827494 -23.035240 68.629539 10.146574 40.685352 -9.095263 -8.844137 -8.870539 -12.694485 23.618616 15.669647 56.691719 -2.368753 -32.381157 -15.847791 -3.973218 20.214420 -16.667389 -23.723675 -13.770795 57.258141 -10.678076 25.266701 -21.092749 2.043296 -8.949278 
